<?xml version="1.0" encoding="UTF-8" standalone="no"?>
<svg width="257px" height="113px" viewBox="0 0 257 113" version="1.1" xmlns="http://www.w3.org/2000/svg" xmlns:xlink="http://www.w3.org/1999/xlink" xmlns:sketch="http://www.bohemiancoding.com/sketch/ns">
    <!-- Generator: Sketch 3.3.3 (12072) - http://www.bohemiancoding.com/sketch -->
    <title>logo-red copy 4</title>
    <desc>Created with Sketch.</desc>
    <defs></defs>
    <g id="Page-1" stroke="none" stroke-width="1" fill="none" fill-rule="evenodd" sketch:type="MSPage">
        <g id="logo-red-copy-4" sketch:type="MSLayerGroup">
            <rect id="Rectangle-1" fill="#D6E1E5" sketch:type="MSShapeGroup" x="0" y="0" width="113" height="113" rx="8"></rect>
            <g id="BEST-+-CY-Copy-2" transform="translate(12.000000, 67.000000)" fill="#93A4AA" sketch:type="MSShapeGroup">
                <path d="M131.478027,22.6948242 L131.543945,22.8266602 C131.573242,26.3423027 130.73829,28.9936434 129.039062,30.7807617 C127.339835,32.56788 124.834977,33.4614258 121.524414,33.4614258 C118.213851,33.4614258 115.569834,32.4470316 113.592285,30.4182129 C111.614736,28.3893942 110.625977,25.514667 110.625977,21.7939453 L110.625977,12.2358398 C110.625977,8.52976663 111.581778,5.65503951 113.493408,3.61157227 C115.405039,1.56810502 117.964828,0.546386719 121.172852,0.546386719 C124.571306,0.546386719 127.138419,1.45458076 128.874268,3.27099609 C130.610116,5.08741143 131.507324,7.77537283 131.565918,11.3349609 L131.5,11.4667969 L125.479492,11.4667969 C125.567383,9.37205984 125.281742,7.86328586 124.622559,6.94042969 C123.963376,6.01757351 122.813485,5.55615234 121.172852,5.55615234 C119.766595,5.55615234 118.689945,6.10546326 117.942871,7.20410156 C117.195797,8.30273987 116.822266,9.9653209 116.822266,12.1918945 L116.822266,21.7939453 C116.822266,24.049816 117.221432,25.7270453 118.019775,26.8256836 C118.818119,27.9243219 119.98632,28.4736328 121.524414,28.4736328 C123.033211,28.4736328 124.084226,28.0378462 124.67749,27.1662598 C125.270755,26.2946734 125.530762,24.8042098 125.45752,22.6948242 L131.478027,22.6948242 Z M145.166992,14.71875 L145.298828,14.71875 L150.638184,1.0078125 L157.427734,1.0078125 L148.287109,21.6181641 L148.287109,33 L142.046875,33 L142.046875,21.2226562 L133.060059,1.0078125 L139.893555,1.0078125 L145.166992,14.71875 Z M161.866211,33 L155.691895,33 L155.691895,27.3310547 L161.866211,27.3310547 L161.866211,33 Z M187.376465,22.6948242 L187.442383,22.8266602 C187.47168,26.3423027 186.636727,28.9936434 184.9375,30.7807617 C183.238273,32.56788 180.733415,33.4614258 177.422852,33.4614258 C174.112288,33.4614258 171.468272,32.4470316 169.490723,30.4182129 C167.513174,28.3893942 166.524414,25.514667 166.524414,21.7939453 L166.524414,12.2358398 C166.524414,8.52976663 167.480215,5.65503951 169.391846,3.61157227 C171.303476,1.56810502 173.863265,0.546386719 177.071289,0.546386719 C180.469744,0.546386719 183.036857,1.45458076 184.772705,3.27099609 C186.508554,5.08741143 187.405761,7.77537283 187.464355,11.3349609 L187.398438,11.4667969 L181.37793,11.4667969 C181.465821,9.37205984 181.180179,7.86328586 180.520996,6.94042969 C179.861813,6.01757351 178.711922,5.55615234 177.071289,5.55615234 C175.665032,5.55615234 174.588383,6.10546326 173.841309,7.20410156 C173.094235,8.30273987 172.720703,9.9653209 172.720703,12.1918945 L172.720703,21.7939453 C172.720703,24.049816 173.119869,25.7270453 173.918213,26.8256836 C174.716557,27.9243219 175.884758,28.4736328 177.422852,28.4736328 C178.931648,28.4736328 179.982663,28.0378462 180.575928,27.1662598 C181.169192,26.2946734 181.4292,24.8042098 181.355957,22.6948242 L187.376465,22.6948242 Z M212.776855,21.5083008 C212.776855,25.2583195 211.758799,28.1879777 209.722656,30.2973633 C207.686513,32.4067488 204.976579,33.4614258 201.592773,33.4614258 C198.208967,33.4614258 195.506358,32.4067488 193.484863,30.2973633 C191.463369,28.1879777 190.452637,25.2583195 190.452637,21.5083008 L190.452637,12.543457 C190.452637,8.80808679 191.463369,5.87476652 193.484863,3.7434082 C195.506358,1.61204989 198.201643,0.546386719 201.570801,0.546386719 C204.939958,0.546386719 207.649892,1.61204989 209.700684,3.7434082 C211.751475,5.87476652 212.776855,8.80808679 212.776855,12.543457 L212.776855,21.5083008 Z M206.558594,12.4995117 C206.558594,10.214344 206.133793,8.48950778 205.28418,7.32495117 C204.434566,6.16039457 203.196785,5.578125 201.570801,5.578125 C199.930168,5.578125 198.699711,6.1567325 197.879395,7.31396484 C197.059078,8.47119719 196.648926,10.1996955 196.648926,12.4995117 L196.648926,21.5083008 C196.648926,23.8227655 197.066402,25.558588 197.901367,26.7158203 C198.736332,27.8730527 199.966789,28.4516602 201.592773,28.4516602 C203.20411,28.4516602 204.434566,27.8730527 205.28418,26.7158203 C206.133793,25.558588 206.558594,23.8227655 206.558594,21.5083008 L206.558594,12.4995117 Z M224.839844,1.0078125 L230.574707,24.496582 L230.706543,24.496582 L236.507324,1.0078125 L244.65918,1.0078125 L244.65918,33 L238.440918,33 L238.440918,23.7055664 L238.968262,11.269043 L238.836426,11.2470703 L232.728027,33 L228.575195,33 L222.532715,11.4228516 L222.400879,11.4448242 L222.950195,23.7055664 L222.950195,33 L216.731934,33 L216.731934,1.0078125 L224.839844,1.0078125 Z" id="CY.COM"></path>
                <path d="M0.416992188,33 L0.416992188,1.0078125 L9.84326172,1.0078125 C13.1391766,1.0078125 15.7136138,1.74022705 17.5666504,3.20507812 C19.419687,4.6699292 20.3461914,6.85252456 20.3461914,9.75292969 C20.3461914,11.2763748 20.0092807,12.6276797 19.3354492,13.8068848 C18.6616177,14.9860899 17.6508856,15.8686494 16.3032227,16.4545898 C17.9878014,16.8500996 19.2329061,17.7070247 20.0385742,19.0253906 C20.8442423,20.3437566 21.2470703,21.8891513 21.2470703,23.6616211 C21.2470703,26.7231598 20.3718349,29.044914 18.6213379,30.6269531 C16.8708409,32.2089923 14.362321,33 11.0957031,33 L0.416992188,33 Z M6.67919922,18.8935547 L6.67919922,28.012207 L11.0957031,28.012207 C12.4140691,28.012207 13.3991667,27.6459998 14.0510254,26.9135742 C14.7028841,26.1811487 15.0288086,25.089851 15.0288086,23.6396484 C15.0288086,22.1162033 14.7504911,20.94434 14.1938477,20.1240234 C13.6372042,19.3037068 12.7436585,18.8935547 11.5131836,18.8935547 L6.67919922,18.8935547 Z M6.67919922,14.5209961 L10.1289062,14.5209961 C11.4033267,14.4916991 12.3811001,14.1218297 13.0622559,13.411377 C13.7434116,12.7009242 14.0839844,11.6792059 14.0839844,10.3461914 C14.0839844,8.85204331 13.7324254,7.75708356 13.0292969,7.0612793 C12.3261684,6.36547504 11.2641673,6.01757812 9.84326172,6.01757812 L6.67919922,6.01757812 L6.67919922,14.5209961 Z M42.3847656,18.9594727 L31.6401367,18.9594727 L31.6401367,28.012207 L44.2744141,28.012207 L44.2744141,33 L25.3779297,33 L25.3779297,1.0078125 L44.2304688,1.0078125 L44.2304688,6.01757812 L31.6401367,6.01757812 L31.6401367,13.9716797 L42.3847656,13.9716797 L42.3847656,18.9594727 Z M61.7426758,24.6503906 C61.7426758,23.4052672 61.4204134,22.4201696 60.7758789,21.6950684 C60.1313444,20.9699671 58.9961019,20.2558629 57.3701172,19.5527344 C54.0449052,18.395502 51.5510337,17.0808179 49.8884277,15.6086426 C48.2258218,14.1364672 47.3945312,12.0747203 47.3945312,9.42333984 C47.3945312,6.80125642 48.3613185,4.66626801 50.2949219,3.01831055 C52.2285253,1.37035309 54.6967623,0.546386719 57.699707,0.546386719 C60.7465973,0.546386719 63.2221584,1.46556698 65.1264648,3.30395508 C67.0307712,5.14234318 67.9536136,7.46043523 67.8950195,10.2583008 L67.8510742,10.3901367 L61.7866211,10.3901367 C61.7866211,8.92528564 61.4204138,7.73877407 60.6879883,6.83056641 C59.9555627,5.92235874 58.9228582,5.46826172 57.5898438,5.46826172 C56.3447203,5.46826172 55.3742711,5.84545521 54.6784668,6.59985352 C53.9826625,7.35425182 53.6347656,8.30272866 53.6347656,9.4453125 C53.6347656,10.5000053 54.0229453,11.3679165 54.7993164,12.0490723 C55.5756875,12.730228 56.9233302,13.4882771 58.8422852,14.3232422 C61.8745269,15.3486379 64.1559982,16.6486738 65.6867676,18.2233887 C67.217537,19.7981036 67.9829102,21.9257678 67.9829102,24.6064453 C67.9829102,27.3750138 67.0600678,29.5429609 65.2143555,31.1103516 C63.3686431,32.6777422 60.9150544,33.4614258 57.8535156,33.4614258 C54.8066254,33.4614258 52.1662709,32.5715421 49.932373,30.791748 C47.6984752,29.011954 46.6181637,26.4594893 46.6914062,23.1342773 L46.7353516,23.0024414 L52.8217773,23.0024414 C52.8217773,24.9799904 53.2392536,26.4008746 54.0742188,27.2651367 C54.9091839,28.1293989 56.1689369,28.5615234 57.8535156,28.5615234 C59.1718816,28.5615234 60.149655,28.2099645 60.7868652,27.5068359 C61.4240755,26.8037074 61.7426758,25.8515685 61.7426758,24.6503906 L61.7426758,24.6503906 Z M90.7246094,6.01757812 L83.5175781,6.01757812 L83.5175781,33 L77.2773438,33 L77.2773438,6.01757812 L70.1142578,6.01757812 L70.1142578,1.0078125 L90.7246094,1.0078125 L90.7246094,6.01757812 Z" id="BEST"></path>
            </g>
        </g>
    </g>
</svg>