<?xml version="1.0" encoding="UTF-8" standalone="no"?>
<svg width="113px" height="113px" viewBox="0 0 113 113" version="1.1" xmlns="http://www.w3.org/2000/svg" xmlns:xlink="http://www.w3.org/1999/xlink" xmlns:sketch="http://www.bohemiancoding.com/sketch/ns">
    <!-- Generator: Sketch 3.3.3 (12072) - http://www.bohemiancoding.com/sketch -->
    <title>logo-red copy 2</title>
    <desc>Created with Sketch.</desc>
    <defs></defs>
    <g id="Page-1" stroke="none" stroke-width="1" fill="none" fill-rule="evenodd" sketch:type="MSPage">
        <g id="logo-red-copy-2" sketch:type="MSLayerGroup">
            <rect id="Rectangle-1" fill="#D6E1E5" sketch:type="MSShapeGroup" x="0" y="0" width="113" height="113" rx="8"></rect>
            <g id="BEST-+-CY-Copy" transform="translate(12.000000, 16.000000)" fill="#93A4AA" sketch:type="MSShapeGroup">
                <path d="M19.0717773,71.7055664 L19.1376953,71.8374023 C19.1083983,74.9575351 18.288094,77.3415445 16.6767578,78.989502 C15.0654216,80.6374594 12.8462055,81.4614258 10.019043,81.4614258 C7.07469231,81.4614258 4.73828989,80.4213971 3.00976562,78.3413086 C1.28124136,76.2612201 0.416992188,73.2949411 0.416992188,69.4423828 L0.416992188,60.5874023 C0.416992188,56.764141 1.28490343,53.8015242 3.02075195,51.6994629 C4.75660048,49.5974016 7.08934082,48.5463867 10.019043,48.5463867 C12.8755026,48.5463867 15.1020428,49.3520427 16.6987305,50.9633789 C18.2954181,52.5747151 19.1083983,54.9770348 19.1376953,58.1704102 L19.0717773,58.3022461 L16.6328125,58.3022461 C16.5595699,55.7680537 15.9736383,53.8967346 14.875,52.6882324 C13.7763617,51.4797303 12.1577255,50.8754883 10.019043,50.8754883 C7.82176636,50.8754883 6.10791631,51.7031167 4.87744141,53.3583984 C3.6469665,55.0136802 3.03173828,57.4013516 3.03173828,60.5214844 L3.03173828,69.4423828 C3.03173828,72.6211096 3.6469665,75.0380777 4.87744141,76.6933594 C6.10791631,78.3486411 7.82176636,79.1762695 10.019043,79.1762695 C12.1577255,79.1762695 13.7763617,78.5866758 14.875,77.4074707 C15.9736383,76.2282656 16.5595699,74.3276498 16.6328125,71.7055664 L19.0717773,71.7055664 Z M32.8486328,65.9487305 L32.9804688,65.9487305 L40.7148438,49.0078125 L43.7250977,49.0078125 L34.2109375,69.2666016 L34.2109375,81 L31.5742188,81 L31.5742188,69.1347656 L22.1040039,49.0078125 L25.1582031,49.0078125 L32.8486328,65.9487305 Z" id="CY"></path>
                <path d="M0.416992188,33 L0.416992188,1.0078125 L9.84326172,1.0078125 C13.1391766,1.0078125 15.7136138,1.74022705 17.5666504,3.20507812 C19.419687,4.6699292 20.3461914,6.85252456 20.3461914,9.75292969 C20.3461914,11.2763748 20.0092807,12.6276797 19.3354492,13.8068848 C18.6616177,14.9860899 17.6508856,15.8686494 16.3032227,16.4545898 C17.9878014,16.8500996 19.2329061,17.7070247 20.0385742,19.0253906 C20.8442423,20.3437566 21.2470703,21.8891513 21.2470703,23.6616211 C21.2470703,26.7231598 20.3718349,29.044914 18.6213379,30.6269531 C16.8708409,32.2089923 14.362321,33 11.0957031,33 L0.416992188,33 Z M6.67919922,18.8935547 L6.67919922,28.012207 L11.0957031,28.012207 C12.4140691,28.012207 13.3991667,27.6459998 14.0510254,26.9135742 C14.7028841,26.1811487 15.0288086,25.089851 15.0288086,23.6396484 C15.0288086,22.1162033 14.7504911,20.94434 14.1938477,20.1240234 C13.6372042,19.3037068 12.7436585,18.8935547 11.5131836,18.8935547 L6.67919922,18.8935547 Z M6.67919922,14.5209961 L10.1289062,14.5209961 C11.4033267,14.4916991 12.3811001,14.1218297 13.0622559,13.411377 C13.7434116,12.7009242 14.0839844,11.6792059 14.0839844,10.3461914 C14.0839844,8.85204331 13.7324254,7.75708356 13.0292969,7.0612793 C12.3261684,6.36547504 11.2641673,6.01757812 9.84326172,6.01757812 L6.67919922,6.01757812 L6.67919922,14.5209961 Z M42.3847656,18.9594727 L31.6401367,18.9594727 L31.6401367,28.012207 L44.2744141,28.012207 L44.2744141,33 L25.3779297,33 L25.3779297,1.0078125 L44.2304688,1.0078125 L44.2304688,6.01757812 L31.6401367,6.01757812 L31.6401367,13.9716797 L42.3847656,13.9716797 L42.3847656,18.9594727 Z M61.7426758,24.6503906 C61.7426758,23.4052672 61.4204134,22.4201696 60.7758789,21.6950684 C60.1313444,20.9699671 58.9961019,20.2558629 57.3701172,19.5527344 C54.0449052,18.395502 51.5510337,17.0808179 49.8884277,15.6086426 C48.2258218,14.1364672 47.3945312,12.0747203 47.3945312,9.42333984 C47.3945312,6.80125642 48.3613185,4.66626801 50.2949219,3.01831055 C52.2285253,1.37035309 54.6967623,0.546386719 57.699707,0.546386719 C60.7465973,0.546386719 63.2221584,1.46556698 65.1264648,3.30395508 C67.0307712,5.14234318 67.9536136,7.46043523 67.8950195,10.2583008 L67.8510742,10.3901367 L61.7866211,10.3901367 C61.7866211,8.92528564 61.4204138,7.73877407 60.6879883,6.83056641 C59.9555627,5.92235874 58.9228582,5.46826172 57.5898438,5.46826172 C56.3447203,5.46826172 55.3742711,5.84545521 54.6784668,6.59985352 C53.9826625,7.35425182 53.6347656,8.30272866 53.6347656,9.4453125 C53.6347656,10.5000053 54.0229453,11.3679165 54.7993164,12.0490723 C55.5756875,12.730228 56.9233302,13.4882771 58.8422852,14.3232422 C61.8745269,15.3486379 64.1559982,16.6486738 65.6867676,18.2233887 C67.217537,19.7981036 67.9829102,21.9257678 67.9829102,24.6064453 C67.9829102,27.3750138 67.0600678,29.5429609 65.2143555,31.1103516 C63.3686431,32.6777422 60.9150544,33.4614258 57.8535156,33.4614258 C54.8066254,33.4614258 52.1662709,32.5715421 49.932373,30.791748 C47.6984752,29.011954 46.6181637,26.4594893 46.6914062,23.1342773 L46.7353516,23.0024414 L52.8217773,23.0024414 C52.8217773,24.9799904 53.2392536,26.4008746 54.0742188,27.2651367 C54.9091839,28.1293989 56.1689369,28.5615234 57.8535156,28.5615234 C59.1718816,28.5615234 60.149655,28.2099645 60.7868652,27.5068359 C61.4240755,26.8037074 61.7426758,25.8515685 61.7426758,24.6503906 L61.7426758,24.6503906 Z M90.7246094,6.01757812 L83.5175781,6.01757812 L83.5175781,33 L77.2773438,33 L77.2773438,6.01757812 L70.1142578,6.01757812 L70.1142578,1.0078125 L90.7246094,1.0078125 L90.7246094,6.01757812 Z" id="BEST"></path>
            </g>
        </g>
    </g>
</svg>