<?xml version="1.0" encoding="UTF-8" standalone="no"?>
<svg width="113px" height="113px" viewBox="0 0 113 113" version="1.1" xmlns="http://www.w3.org/2000/svg" xmlns:xlink="http://www.w3.org/1999/xlink" xmlns:sketch="http://www.bohemiancoding.com/sketch/ns">
    <!-- Generator: Sketch 3.3.3 (12072) - http://www.bohemiancoding.com/sketch -->
    <title>logo-gray</title>
    <desc>Created with Sketch.</desc>
    <defs></defs>
    <g id="Page-1" stroke="none" stroke-width="1" fill="none" fill-rule="evenodd" sketch:type="MSPage">
        <g id="logo-gray" sketch:type="MSLayerGroup">
            <rect id="Rectangle-1-Copy" fill="#D6E1E5" sketch:type="MSShapeGroup" x="0" y="0" width="113" height="113" rx="8"></rect>
            <path d="M11.5039062,104 L11.5039062,84.09375 L17.3691406,84.09375 C19.4199321,84.09375 21.0218041,84.5494746 22.1748047,85.4609375 C23.3278052,86.3724004 23.9042969,87.7304597 23.9042969,89.5351562 C23.9042969,90.4830777 23.6946636,91.3238896 23.2753906,92.0576172 C22.8561177,92.7913448 22.2272177,93.340493 21.3886719,93.7050781 C22.4368542,93.9511731 23.211586,94.4843709 23.7128906,95.3046875 C24.2141952,96.1250041 24.4648438,97.086583 24.4648438,98.1894531 C24.4648438,100.094411 23.9202528,101.539058 22.8310547,102.523438 C21.7418565,103.507817 20.1809997,104 18.1484375,104 L11.5039062,104 Z M15.4003906,95.2226562 L15.4003906,100.896484 L18.1484375,100.896484 C18.9687541,100.896484 19.5817037,100.668622 19.9873047,100.212891 C20.3929057,99.7571592 20.5957031,99.0781295 20.5957031,98.1757812 C20.5957031,97.2278598 20.4225278,96.4987005 20.0761719,95.9882812 C19.729816,95.477862 19.173832,95.2226562 18.4082031,95.2226562 L15.4003906,95.2226562 Z M15.4003906,92.5019531 L17.546875,92.5019531 C18.3398477,92.4837239 18.9482401,92.2535829 19.3720703,91.8115234 C19.7959006,91.3694639 20.0078125,90.7337281 20.0078125,89.9042969 C20.0078125,88.9746047 19.7890647,88.2932964 19.3515625,87.8603516 C18.9140603,87.4274067 18.2532596,87.2109375 17.3691406,87.2109375 L15.4003906,87.2109375 L15.4003906,92.5019531 Z M37.6171875,95.2636719 L30.9316406,95.2636719 L30.9316406,100.896484 L38.7929688,100.896484 L38.7929688,104 L27.0351562,104 L27.0351562,84.09375 L38.765625,84.09375 L38.765625,87.2109375 L30.9316406,87.2109375 L30.9316406,92.1601562 L37.6171875,92.1601562 L37.6171875,95.2636719 Z M49.6621094,98.8046875 C49.6621094,98.029944 49.4615905,97.4169944 49.0605469,96.9658203 C48.6595032,96.5146462 47.9531301,96.0703147 46.9414062,95.6328125 C44.8723855,94.9127568 43.3206432,94.0947311 42.2861328,93.1787109 C41.2516224,92.2626907 40.734375,90.979826 40.734375,89.3300781 C40.734375,87.6985596 41.3359315,86.3701223 42.5390625,85.3447266 C43.7421935,84.3193308 45.2779854,83.8066406 47.1464844,83.8066406 C49.0423272,83.8066406 50.5826764,84.378575 51.7675781,85.5224609 C52.9524799,86.6663469 53.5266929,88.1087153 53.4902344,89.8496094 L53.4628906,89.9316406 L49.6894531,89.9316406 C49.6894531,89.0201777 49.4615908,88.2819039 49.0058594,87.7167969 C48.5501279,87.1516899 47.9075562,86.8691406 47.078125,86.8691406 C46.3033815,86.8691406 45.6995464,87.1038388 45.2666016,87.5732422 C44.8336567,88.0426456 44.6171875,88.6328089 44.6171875,89.34375 C44.6171875,90.0000033 44.8587215,90.5400369 45.3417969,90.9638672 C45.8248722,91.3876974 46.6634055,91.8593724 47.8574219,92.3789062 C49.7441501,93.0169303 51.1637322,93.8258415 52.1162109,94.8056641 C53.0686897,95.7854867 53.5449219,97.1093667 53.5449219,98.7773438 C53.5449219,100.500009 52.9707089,101.848953 51.8222656,102.824219 C50.6738224,103.799484 49.1471449,104.287109 47.2421875,104.287109 C45.3463447,104.287109 43.7034575,103.733404 42.3134766,102.625977 C40.9234957,101.518549 40.2513019,99.9303489 40.296875,97.8613281 L40.3242187,97.7792969 L44.1113281,97.7792969 C44.1113281,99.0097718 44.3710912,99.8938775 44.890625,100.431641 C45.4101588,100.969404 46.1940052,101.238281 47.2421875,101.238281 C48.0625041,101.238281 48.6708965,101.019533 49.0673828,100.582031 C49.4638692,100.144529 49.6621094,99.5520871 49.6621094,98.8046875 L49.6621094,98.8046875 Z M67.6953125,87.2109375 L63.2109375,87.2109375 L63.2109375,104 L59.328125,104 L59.328125,87.2109375 L54.8710938,87.2109375 L54.8710938,84.09375 L67.6953125,84.09375 L67.6953125,87.2109375 Z M73.328125,97.0136719 L66.5332031,97.0136719 L66.5332031,93.8964844 L73.328125,93.8964844 L73.328125,97.0136719 Z M89.1054688,97.5878906 L89.1464844,97.6699219 C89.1647136,99.8574328 88.6451876,101.507156 87.5878906,102.619141 C86.5305937,103.731125 84.9720155,104.287109 82.9121094,104.287109 C80.8522032,104.287109 79.2070374,103.655931 77.9765625,102.393555 C76.7460876,101.131179 76.1308594,99.3424595 76.1308594,97.0273438 L76.1308594,91.0800781 C76.1308594,88.774077 76.72558,86.9853579 77.9150391,85.7138672 C79.1044981,84.4423765 80.6972556,83.8066406 82.6933594,83.8066406 C84.8079533,83.8066406 86.405268,84.3717391 87.4853516,85.5019531 C88.5654351,86.6321671 89.1236977,88.3046764 89.1601562,90.5195312 L89.1191406,90.6015625 L85.3730469,90.6015625 C85.4277346,89.2981706 85.2500021,88.3593779 84.8398438,87.7851562 C84.4296854,87.2109346 83.7141978,86.9238281 82.6933594,86.9238281 C81.818355,86.9238281 81.1484398,87.2656216 80.6835938,87.9492188 C80.2187477,88.6328159 79.9863281,89.6673108 79.9863281,91.0527344 L79.9863281,97.0273438 C79.9863281,98.4309966 80.234698,99.474606 80.7314453,100.158203 C81.2281926,100.8418 81.9550733,101.183594 82.9121094,101.183594 C83.8509162,101.183594 84.504881,100.912438 84.8740234,100.370117 C85.2431659,99.8277968 85.4049481,98.9003972 85.359375,97.5878906 L89.1054688,97.5878906 Z M97.6230469,92.625 L97.7050781,92.625 L101.027344,84.09375 L105.251953,84.09375 L99.5644531,96.9179688 L99.5644531,104 L95.6816406,104 L95.6816406,96.671875 L90.0898438,84.09375 L94.3417969,84.09375 L97.6230469,92.625 Z" id="BEST-CY-Copy-2" fill="#93A4AA" sketch:type="MSShapeGroup"></path>
        </g>
    </g>
</svg>